<svg xmlns="http://www.w3.org/2000/svg" xmlns:xlink="http://www.w3.org/1999/xlink" width="500" zoomAndPan="magnify" viewBox="0 0 375 374.999991" height="500" preserveAspectRatio="xMidYMid meet" version="1.0"><defs><filter x="0%" y="0%" width="100%" height="100%" id="8cc1915c0e"><feColorMatrix values="0 0 0 0 1 0 0 0 0 1 0 0 0 0 1 0 0 0 1 0" color-interpolation-filters="sRGB"/></filter><g/><mask id="1f299d1b7c"><g filter="url(#8cc1915c0e)"><rect x="-37.5" width="450" fill="#000000" y="-37.499999" height="449.999989" fill-opacity="0.78"/></g></mask><clipPath id="89fea79bb6"><path d="M 0.640625 1.507812 L 324 1.507812 L 324 286.507812 L 0.640625 286.507812 Z M 0.640625 1.507812 " clip-rule="nonzero"/></clipPath><clipPath id="ec355e7f50"><path d="M -1.351562 34.507812 L -1.351562 253.5 C -1.351562 271.726562 13.421875 286.5 31.648438 286.5 L 291.351562 286.5 C 309.578125 286.5 324.351562 271.726562 324.351562 253.5 L 324.351562 34.507812 C 324.351562 16.28125 309.578125 1.507812 291.351562 1.507812 L 31.648438 1.507812 C 13.421875 1.507812 -1.351562 16.28125 -1.351562 34.507812 Z M -1.351562 34.507812 " clip-rule="nonzero"/></clipPath><clipPath id="86a0c4bb59"><rect x="0" width="325" y="0" height="288"/></clipPath></defs><g mask="url(#1f299d1b7c)"><g transform="matrix(1, 0, 0, 1, 26, 51)"><g clip-path="url(#86a0c4bb59)"><g clip-path="url(#89fea79bb6)"><g clip-path="url(#ec355e7f50)"><path fill="#f8230e" d="M 266.03125 175.523438 C 265.953125 173.027344 267.914062 170.941406 270.410156 170.863281 C 272.285156 170.804688 273.929688 171.894531 274.667969 173.5 C 275.300781 171.855469 276.871094 170.660156 278.75 170.601562 C 281.246094 170.523438 283.332031 172.484375 283.410156 174.984375 C 283.445312 176.058594 283.535156 178.914062 277.425781 183.144531 L 275.015625 184.808594 L 272.511719 183.296875 C 266.152344 179.457031 266.066406 176.597656 266.03125 175.523438 Z M 268.175781 128.894531 C 269.910156 125.621094 273.972656 124.375 277.25 126.113281 C 279.710938 127.417969 281.023438 130.03125 280.792969 132.644531 C 282.820312 130.984375 285.71875 130.605469 288.183594 131.910156 C 291.460938 133.644531 292.703125 137.703125 290.96875 140.980469 C 290.21875 142.394531 288.234375 146.140625 277.253906 147.09375 L 272.925781 147.46875 L 270.8125 143.675781 C 265.441406 134.054688 267.425781 130.304688 268.175781 128.894531 Z M 50.261719 143.507812 C 58.773438 142.242188 71.691406 149.796875 73.207031 160.003906 C 74.722656 170.207031 69.046875 179.511719 60.535156 180.773438 C 52.019531 182.042969 43.882812 174.792969 42.367188 164.585938 C 40.847656 154.382812 41.746094 144.773438 50.261719 143.507812 Z M 99.363281 172.523438 C 100.460938 179.925781 96.449219 186.660156 90.402344 187.554688 C 84.359375 188.457031 78.5625 183.183594 77.464844 175.777344 C 76.363281 168.375 76.929688 161.476562 82.976562 160.578125 C 89.023438 159.679688 98.261719 165.117188 99.363281 172.523438 Z M 320.457031 181.273438 C 319.039062 186.449219 317.125 191.484375 314.796875 196.308594 C 314.25 197.546875 313.605469 198.667969 312.980469 199.820312 L 311.09375 203.25 C 310.457031 204.394531 309.859375 205.554688 309.179688 206.671875 L 307 209.953125 C 301.242188 218.707031 294.28125 226.871094 286.074219 233.5625 C 277.898438 240.273438 268.757812 245.691406 259.21875 249.777344 C 249.675781 253.863281 239.808594 256.785156 229.910156 258.871094 C 220.007812 260.976562 210.085938 262.339844 200.21875 263.34375 C 190.355469 264.398438 180.539062 264.984375 170.800781 265.695312 C 161.066406 266.402344 151.402344 267.183594 141.839844 268.308594 C 132.28125 269.46875 122.839844 271.152344 113.699219 273.808594 C 104.589844 276.511719 95.796875 280.339844 87.992188 285.886719 L 87.816406 286.011719 C 87.066406 286.542969 86.027344 286.367188 85.492188 285.617188 C 85.304688 285.355469 85.207031 285.050781 85.1875 284.753906 L 85.1875 284.75 C 84.609375 275.851562 83.320312 266.96875 81.433594 258.179688 C 81.394531 257.988281 81.515625 257.800781 81.707031 257.753906 C 81.890625 257.714844 82.070312 257.824219 82.125 257.996094 C 84.578125 265.59375 86.589844 273.359375 88.066406 281.265625 C 95.023438 275.4375 103.121094 270.980469 111.542969 267.636719 C 120.894531 263.859375 130.664062 261.425781 140.40625 259.453125 C 150.160156 257.460938 159.960938 256.117188 169.6875 254.820312 C 179.414062 253.527344 189.085938 252.277344 198.632812 250.847656 C 217.683594 247.914062 236.453125 243.992188 253.148438 236.21875 C 261.476562 232.34375 269.238281 227.542969 276.0625 221.675781 C 282.921875 215.84375 288.746094 208.882812 293.617188 201.246094 L 295.464844 198.398438 C 296.039062 197.414062 296.554688 196.394531 297.105469 195.398438 L 298.738281 192.394531 C 299.28125 191.390625 299.859375 190.394531 300.285156 189.386719 C 302.199219 185.390625 303.757812 181.234375 304.902344 176.972656 C 307.199219 168.449219 308.117188 159.546875 307.402344 150.722656 C 306.035156 133.085938 298.457031 115.898438 286.050781 103.015625 C 282.949219 99.804688 279.59375 96.8125 275.984375 94.140625 L 273.234375 92.1875 L 270.382812 90.371094 C 268.441406 89.222656 266.5 88.058594 264.453125 87.101562 C 263.4375 86.605469 262.433594 86.078125 261.410156 85.601562 L 258.265625 84.316406 L 256.691406 83.664062 C 256.160156 83.464844 255.621094 83.300781 255.085938 83.113281 L 251.859375 82.023438 C 247.492188 80.792969 243.027344 79.738281 238.472656 79.253906 C 233.925781 78.628906 229.304688 78.601562 224.675781 78.738281 C 222.378906 78.9375 220.042969 79.011719 217.75 79.414062 C 216.597656 79.59375 215.433594 79.710938 214.292969 79.941406 L 210.859375 80.667969 C 209.707031 80.882812 208.578125 81.191406 207.449219 81.507812 C 206.316406 81.824219 205.167969 82.097656 204.042969 82.449219 C 201.832031 83.242188 199.539062 83.886719 197.382812 84.871094 C 192.929688 86.550781 188.753906 88.859375 184.554688 91.222656 L 184.488281 91.257812 C 183.976562 91.546875 183.382812 91.539062 182.898438 91.289062 C 182.863281 91.273438 182.839844 91.246094 182.804688 91.230469 C 182.738281 91.191406 182.675781 91.152344 182.613281 91.101562 C 182.226562 90.828125 181.941406 90.421875 181.890625 89.929688 L 181.886719 89.902344 C 180.53125 77.390625 176.820312 65.335938 170.671875 54.761719 C 164.511719 44.226562 156.1875 35.117188 146.234375 28.449219 C 136.328125 21.746094 124.941406 17.335938 113.253906 15.570312 C 107.40625 14.660156 101.464844 14.542969 95.585938 14.960938 C 92.640625 15.15625 89.71875 15.601562 86.816406 16.113281 C 83.9375 16.730469 81.0625 17.382812 78.253906 18.28125 C 66.972656 21.734375 56.578125 27.828125 47.890625 35.785156 C 43.578125 39.800781 39.703125 44.292969 36.34375 49.164062 C 34.65625 51.597656 33.128906 54.175781 31.769531 56.617188 C 30.554688 59.230469 29.425781 61.894531 28.441406 64.757812 C 24.433594 76.050781 22.660156 88.160156 23.453125 100.4375 C 24.097656 112.734375 26.996094 125.058594 30.472656 137.328125 L 30.476562 137.335938 C 30.726562 138.230469 30.210938 139.160156 29.3125 139.417969 C 28.523438 139.636719 27.703125 139.261719 27.347656 138.550781 C 21.527344 126.996094 17 114.570312 14.84375 101.375 C 13.828125 94.785156 13.359375 88.015625 13.777344 81.238281 C 14.179688 74.46875 15.378906 67.71875 17.285156 61.179688 C 25.179688 34.253906 47.875 13.410156 74.359375 5.527344 C 80.964844 3.488281 87.824219 2.3125 94.714844 1.925781 C 101.605469 1.519531 108.542969 1.941406 115.320312 3.167969 C 122.101562 4.410156 128.707031 6.484375 134.980469 9.230469 C 136.570312 9.882812 138.066406 10.722656 139.605469 11.460938 C 141.128906 12.238281 142.589844 13.144531 144.078125 13.980469 C 145.582031 14.796875 146.988281 15.777344 148.398438 16.734375 C 149.816406 17.6875 151.242188 18.625 152.5625 19.71875 C 153.882812 20.792969 155.285156 21.777344 156.539062 22.929688 L 160.328125 26.359375 L 163.824219 30.074219 C 164.996094 31.300781 166.003906 32.675781 167.09375 33.96875 C 171.28125 39.292969 174.925781 45.023438 177.710938 51.136719 L 179.683594 55.757812 L 181.347656 60.492188 C 182.34375 63.671875 183.246094 66.882812 183.8125 70.15625 C 184.851562 75.496094 185.359375 80.910156 185.332031 86.289062 C 192.332031 80.871094 200.25 76.445312 208.785156 73.480469 L 212.4375 72.289062 C 213.664062 71.910156 214.914062 71.636719 216.160156 71.304688 C 218.632812 70.597656 221.1875 70.226562 223.726562 69.738281 C 224.996094 69.503906 226.285156 69.414062 227.570312 69.25 C 228.859375 69.121094 230.144531 68.898438 231.441406 68.890625 L 235.332031 68.738281 C 236.636719 68.664062 237.929688 68.78125 239.234375 68.796875 C 244.453125 68.863281 249.640625 69.667969 254.78125 70.703125 L 258.597656 71.660156 C 259.234375 71.824219 259.878906 71.96875 260.507812 72.15625 L 262.375 72.777344 L 266.121094 74.03125 C 267.34375 74.503906 268.554688 75.027344 269.769531 75.527344 C 279.507812 79.53125 288.484375 85.503906 296.183594 92.828125 C 311.714844 107.441406 321.425781 128.019531 323.382812 149.371094 C 324.292969 160.054688 323.351562 170.929688 320.457031 181.273438 Z M 64.453125 237.484375 C 59.433594 241.34375 55.429688 246.664062 49.175781 248.246094 C 38.800781 250.867188 30.433594 245.175781 26.582031 235.558594 C 22.375 225.058594 28.316406 197.472656 50.425781 188.621094 C 72.53125 179.765625 95.875 195.617188 100.078125 206.117188 C 102.875 213.097656 102.34375 222.019531 97.4375 227.945312 C 88.773438 238.410156 74.078125 230.078125 64.453125 237.484375 Z M 21.171875 201.320312 C 25.488281 207.4375 24.9375 215.253906 19.941406 218.777344 C 14.945312 222.300781 7.398438 220.199219 3.082031 214.082031 C -1.234375 207.964844 1.617188 197.464844 6.613281 193.9375 C 11.613281 190.414062 16.855469 195.207031 21.171875 201.320312 Z M 10.859375 184.976562 C 4.910156 176.546875 9.148438 162.441406 16.183594 157.476562 C 23.214844 152.519531 30.386719 158.570312 36.335938 167.003906 C 42.285156 175.4375 41.402344 186.292969 34.367188 191.257812 C 27.332031 196.214844 16.808594 193.40625 10.859375 184.976562 " fill-opacity="1" fill-rule="nonzero"/></g></g></g></g></g><path stroke-linecap="butt" transform="matrix(0.774129, 0, 0, 0.774129, 6.881425, 118.786324)" fill="none" stroke-linejoin="miter" d="M 23.647314 93.505782 C 24.676696 91.936478 27.790074 46.981729 27.790074 21.554972 C 27.790074 15.77731 27.608418 11.008847 27.229969 7.981252 C 26.690048 4.221987 21.830757 1.194392 17.148075 1.194392 C 13.388811 1.194392 9.80111 3.121961 8.70613 8.364747 C 7.964369 13.763959 7.696931 21.196707 7.696931 29.462043 C 7.696931 56.523702 10.810308 92.203916 12.177773 94.131485 C 13.832858 96.260894 15.760427 97.159081 17.597169 97.159081 C 19.994015 97.159081 22.27985 95.700789 23.647314 93.505782 Z M 32.371835 7.532158 C 32.841113 37.081492 33.290206 78.09532 35.394385 95.231512 C 35.485213 99.732537 39.158696 101.836716 42.832178 101.836716 C 46.505661 101.836716 50.269971 99.641709 50.269971 95.433351 C 50.895675 83.222049 52.283323 29.376261 53.115911 12.21484 L 53.115911 11.745562 C 53.115911 3.121961 47.045582 -0.909787 41.464714 -0.909787 C 36.782033 -0.909787 32.371835 2.021934 32.371835 7.532158 Z M 152.294898 82.8436 C 153.389878 77.984309 155.317448 67.433138 155.317448 57.800338 C 155.317448 48.99508 153.748144 40.931584 148.353978 38.085644 C 146.224569 36.97048 144.12039 36.521386 141.925383 36.521386 C 133.660047 36.521386 125.324067 43.217419 123.285486 49.736841 C 119.995499 40.845802 115.131162 38.2673 110.720964 38.2673 C 104.585037 38.2673 99.069767 43.217419 99.069767 43.217419 C 98.802329 41.471505 100.260621 34.593817 91.722802 34.593817 C 91.187926 34.593817 90.627821 34.593817 90.002118 34.684645 C 87.872709 34.952083 86.14698 35.779626 84.401066 37.081492 C 82.095047 37.258101 81.262459 42.031611 81.262459 48.551033 C 81.262459 62.750457 85.137781 85.331274 85.137781 85.417056 C 85.94514 89.090538 88.341986 90.569014 90.920489 90.569014 C 94.119648 90.569014 97.414681 88.172168 97.616521 84.973008 C 98.151396 76.349407 97.793131 72.675924 98.711501 64.047277 C 99.54409 52.850219 104.110714 46.239968 108.435129 46.239968 C 112.108612 46.239968 115.671083 51.190087 116.322016 62.568801 L 116.322016 62.952296 C 116.322016 65.596396 115.782095 82.127069 115.782095 83.222049 C 115.782095 84.589513 117.058731 85.240446 118.628035 85.240446 C 121.272135 85.240446 124.85479 83.403705 124.945618 80.557765 C 124.945618 80.557765 124.85479 78.988461 124.85479 76.056739 C 124.85479 74.12917 124.85479 71.666726 125.031399 68.63913 C 125.324067 62.750457 125.863988 56.614529 126.868141 53.208484 C 127.609902 50.655212 133.029298 43.686696 136.975264 43.686696 C 139.256053 43.686696 141.007012 45.881703 141.183622 52.401126 C 141.365278 54.328695 141.45106 56.791139 141.45106 59.637079 C 141.45106 67.523966 140.825357 77.711825 140.174424 83.045439 C 140.174424 83.312877 140.088642 83.671142 140.088642 83.96381 C 140.088642 86.60791 142.011165 87.612063 144.408011 87.612063 C 147.793872 87.612063 152.113242 85.331274 152.294898 82.8436 Z M 176.889066 33.408009 C 164.390143 33.408009 158.814321 45.881703 158.814321 58.718708 C 158.814321 72.494268 165.217685 86.80975 176.510617 86.80975 L 177.51477 86.80975 C 190.286177 85.891379 197.340475 71.843335 197.340475 58.451271 C 197.340475 45.705093 190.91188 33.408009 176.889066 33.408009 Z M 175.768856 79.906832 L 175.501418 79.906832 C 171.086175 79.906832 168.981996 69.920812 168.981996 60.197184 C 168.981996 50.92265 170.909565 41.940783 174.850485 41.738943 L 175.143153 41.738943 C 180.628147 41.738943 182.757556 49.555186 182.757556 58.093005 C 182.757556 68.442336 179.623994 79.906832 175.768856 79.906832 Z M 204.026415 39.004015 C 203.486494 41.28985 203.219056 49.267564 203.219056 58.269615 C 203.219056 69.269879 203.66815 81.945413 204.404865 87.253797 C 204.944786 90.841498 208.527441 92.678239 212.115142 92.678239 C 215.495957 92.678239 218.811174 91.018108 219.346049 87.813902 C 221.298848 76.793454 222.661266 64.228932 223.019532 53.026829 C 223.019532 52.199286 222.93375 51.280915 222.93375 50.387774 C 222.93375 49.085908 223.11036 47.809272 223.761293 46.623464 C 225.688862 43.308247 229.806392 40.729744 233.394093 40.729744 C 235.321662 40.729744 237.067575 41.562333 238.162556 43.308247 C 240.831886 47.249167 241.659429 52.668563 241.659429 58.537053 C 241.659429 68.553348 239.262582 79.82105 239.262582 86.517082 C 239.262582 89.363022 239.641032 91.376373 240.831886 92.294744 C 241.750257 92.945677 242.754409 93.303942 243.854436 93.303942 C 244.949416 93.303942 246.049442 92.945677 247.169653 92.385572 C 251.378011 90.841498 255.142321 77.535215 255.142321 64.228932 C 255.142321 52.199286 252.028944 40.194869 243.314514 37.348929 C 240.741058 36.248903 238.162556 35.870453 235.700111 35.870453 C 229.538954 35.870453 224.412226 38.448956 222.752094 38.918233 C 222.842922 38.534738 222.842922 38.176472 222.842922 37.798023 C 222.842922 33.852056 218.251069 30.829507 213.568387 30.829507 C 209.445811 30.829507 205.328281 33.115341 204.026415 39.004015 Z M 258.709838 70.18825 C 258.82085 83.136267 266.324241 92.294744 278.535544 92.294744 C 279.272258 92.294744 279.923192 92.294744 280.639722 92.203916 C 287.71925 91.487385 292.487713 84.231248 292.578541 84.231248 C 292.845979 87.435453 293.315256 92.587411 294.68272 94.69159 C 295.333653 95.791617 296.877727 96.437504 298.628686 96.437504 C 300.107162 96.437504 301.742064 95.968227 303.22054 94.959028 C 307.16146 92.496584 310.744115 46.800074 310.744115 20.010898 C 310.744115 11.478125 310.365666 4.777046 309.558307 2.20359 C 308.639936 -0.733178 305.592156 -2.297435 302.660435 -2.297435 C 299.814495 -2.297435 297.079567 -0.909787 296.075414 2.021934 C 293.406084 9.817993 291.569343 32.015315 291.569343 47.809272 L 291.569343 49.913451 C 288.546793 47.339995 285.04992 45.412426 279.095649 45.321598 L 278.26306 45.321598 C 265.521928 45.321598 258.709838 53.586934 258.709838 69.829984 Z M 291.660171 57.442072 C 292.200092 60.732059 292.578541 67.251482 292.578541 72.201601 C 292.578541 73.321811 292.487713 74.219998 292.487713 75.138369 C 292.018436 80.199499 286.886661 84.973008 282.02737 84.973008 L 281.759933 84.973008 C 275.331338 84.791353 272.308789 76.97511 272.308789 69.002442 C 272.308789 60.933899 275.422166 52.850219 281.109 52.199286 C 281.558093 52.108458 282.118198 52.108458 282.567292 52.108458 C 287.71925 52.108458 291.301905 55.045226 291.660171 57.442072 Z M 333.597416 33.408009 C 321.098492 33.408009 315.52267 45.881703 315.52267 58.718708 C 315.52267 72.494268 321.926035 86.80975 333.218966 86.80975 L 334.223119 86.80975 C 346.994527 85.891379 354.048824 71.843335 354.048824 58.451271 C 354.048824 45.705093 347.62023 33.408009 333.597416 33.408009 Z M 332.477206 79.906832 L 332.209768 79.906832 C 327.794524 79.906832 325.690345 69.920812 325.690345 60.197184 C 325.690345 50.92265 327.617915 41.940783 331.558835 41.738943 L 331.851502 41.738943 C 337.336497 41.738943 339.465905 49.555186 339.465905 58.093005 C 339.465905 68.442336 336.332344 79.906832 332.477206 79.906832 Z M 381.746278 70.18825 C 381.85729 83.136267 389.360681 92.294744 401.571984 92.294744 C 402.308699 92.294744 402.959632 92.294744 403.676163 92.203916 C 410.75569 91.487385 415.524153 84.231248 415.614981 84.231248 C 415.882419 87.435453 416.356742 92.587411 417.71916 94.69159 C 418.370093 95.791617 419.914167 96.437504 421.665127 96.437504 C 423.143602 96.437504 424.778504 95.968227 426.25698 94.959028 C 430.1979 92.496584 433.780555 46.800074 433.780555 20.010898 C 433.780555 11.478125 433.402106 4.777046 432.594747 2.20359 C 431.676376 -0.733178 428.628597 -2.297435 425.696875 -2.297435 C 422.850935 -2.297435 420.116007 -0.909787 419.111854 2.021934 C 416.442524 9.817993 414.605783 32.015315 414.605783 47.809272 L 414.605783 49.913451 C 411.583233 47.339995 408.08636 45.412426 402.132089 45.321598 L 401.2995 45.321598 C 388.558368 45.321598 381.746278 53.586934 381.746278 69.829984 Z M 414.696611 57.442072 C 415.236532 60.732059 415.614981 67.251482 415.614981 72.201601 C 415.614981 73.321811 415.524153 74.219998 415.524153 75.138369 C 415.054876 80.199499 409.923102 84.973008 405.063811 84.973008 L 404.796373 84.973008 C 398.367778 84.791353 395.345229 76.97511 395.345229 69.002442 C 395.345229 60.933899 398.458606 52.850219 404.14544 52.199286 C 404.594533 52.108458 405.154638 52.108458 405.603732 52.108458 C 410.75569 52.108458 414.338345 55.045226 414.696611 57.442072 Z M 441.112383 40.643963 C 441.112383 40.845802 441.021555 41.11324 441.021555 41.380677 C 440.930727 46.239968 440.844945 51.280915 440.844945 56.165436 C 440.844945 72.115819 441.490832 86.60791 442.949124 90.099737 C 444.336772 91.936478 446.622607 92.945677 448.726786 92.945677 C 450.830964 92.945677 452.783764 91.845651 453.227811 89.448804 C 455.715485 80.91603 457.441215 60.106356 457.441215 48.258366 C 457.441215 45.412426 457.350387 43.040809 457.173777 41.562333 C 456.724684 37.999862 452.667706 36.339731 448.635958 36.339731 C 444.876693 36.339731 441.20321 37.888851 441.112383 40.643963 Z M 449.286891 14.409846 C 448.908441 14.409846 448.635958 14.324065 448.277692 14.324065 C 444.044104 14.324065 439.654091 17.079177 438.826548 21.287535 C 438.73572 21.554972 438.73572 21.938468 438.73572 22.205905 C 438.73572 25.702778 442.767468 28.6345 447.899243 28.725328 L 448.726786 28.725328 C 455.246208 28.725328 459.010519 26.621149 459.187128 21.46919 L 459.187128 21.378362 C 459.187128 16.695681 453.676904 14.85894 449.286891 14.409846 Z M 449.286891 14.409846 " stroke="#c0e9eb" stroke-width="6.881782" stroke-opacity="1" stroke-miterlimit="4"/><path stroke-linecap="butt" transform="matrix(0.774129, 0, 0, 0.774129, 6.881425, 118.786324)" fill="none" stroke-linejoin="miter" d="M 183.655743 155.743056 C 184.12502 155.743056 184.664941 155.833884 185.134219 155.833884 C 188.156768 155.833884 191.270146 154.824685 193.399555 149.047024 C 194.857846 145.191885 195.776217 139.954145 195.776217 134.554933 C 195.776217 120.239451 189.256795 104.092275 167.796188 104.092275 L 167.417738 104.092275 C 157.784938 104.092275 149.161337 107.942367 142.934582 119.053643 C 139.079443 125.931331 136.505987 139.237614 136.505987 153.548049 C 136.505987 179.60051 144.862151 209.053969 168.421891 209.053969 L 169.900367 209.053969 C 184.664941 208.317254 193.490382 193.355886 194.025258 179.60051 L 194.025258 179.040404 C 194.025258 172.162716 189.347622 167.480035 182.469934 167.480035 C 180.274928 167.480035 177.968909 167.954358 175.501418 168.958511 C 173.488067 169.7911 171.46967 172.520982 171.46967 175.008656 C 171.46967 177.405503 173.306412 179.60051 178.438186 179.691338 C 179.533167 179.691338 180.093272 181.528079 180.093272 184.101535 C 180.093272 190.797567 176.334007 202.897858 169.542101 203.543745 L 168.896214 203.543745 C 158.703309 203.543745 154.111455 182.532231 154.111455 160.784003 C 154.111455 137.577482 159.354242 113.634247 168.981996 113.634247 L 169.072824 113.634247 C 176.334007 113.720029 176.95971 122.434458 176.95971 131.890649 L 176.95971 138.495853 C 176.95971 147.386892 177.519816 155.384791 183.655743 155.743056 Z M 202.189674 145.640979 C 202.189674 145.842818 202.098846 146.110256 202.098846 146.38274 C 202.013064 151.242031 201.922236 156.282977 201.922236 161.162452 C 201.922236 177.112835 202.573169 191.604926 204.026415 195.101799 C 205.414063 196.938541 207.699898 197.947739 209.809123 197.947739 C 211.913302 197.947739 213.861055 196.847713 214.310148 194.450866 C 216.797823 185.918093 218.518506 165.108419 218.518506 153.255382 C 218.518506 150.414488 218.432724 148.037825 218.251069 146.559349 C 217.801975 142.996879 213.750043 141.341793 209.718295 141.341793 C 205.953984 141.341793 202.280502 142.885867 202.189674 145.640979 Z M 210.364182 119.411909 C 209.985733 119.411909 209.718295 119.321081 209.36003 119.321081 C 205.126442 119.321081 200.736428 122.076193 199.903839 126.289597 C 199.818057 126.557034 199.818057 126.935484 199.818057 127.207967 C 199.818057 130.699794 203.849805 133.636562 208.976534 133.72739 L 209.809123 133.72739 C 216.323499 133.72739 220.08781 131.618165 220.269466 126.466206 L 220.269466 126.375379 C 220.269466 121.697743 214.759242 119.861002 210.364182 119.411909 Z M 225.951254 144.006077 C 225.411332 146.291912 225.143895 154.26458 225.143895 163.271677 C 225.143895 174.266895 225.592988 186.947475 226.329703 192.255859 C 226.869624 195.838514 230.452279 197.675256 234.034934 197.675256 C 237.420795 197.675256 240.736012 196.02017 241.270887 192.815965 C 243.218641 181.795516 244.586105 169.230995 244.94437 158.028891 C 244.94437 157.201348 244.858588 156.282977 244.858588 155.384791 C 244.858588 154.087971 245.035198 152.811334 245.686131 151.62048 C 247.6137 148.305263 251.73123 145.731807 255.318931 145.731807 C 257.241454 145.731807 258.992414 146.559349 260.087394 148.305263 C 262.751678 152.251229 263.584267 157.670625 263.584267 163.539115 C 263.584267 173.550364 261.187421 184.818066 261.187421 191.519144 C 261.187421 194.360038 261.56587 196.378435 262.751678 197.296806 C 263.670049 197.947739 264.679248 198.306005 265.779274 198.306005 C 266.874254 198.306005 267.974281 197.947739 269.094491 197.387634 C 273.302849 195.838514 277.06716 182.532231 277.06716 169.230995 C 277.06716 157.201348 273.953782 145.191885 265.239353 142.350992 C 262.665896 141.250965 260.087394 140.872516 257.62495 140.872516 C 251.463793 140.872516 246.337064 143.445972 244.676932 143.915249 C 244.76776 143.5368 244.76776 143.178534 244.76776 142.795039 C 244.76776 138.854119 240.175907 135.831569 235.493226 135.831569 C 231.37065 135.831569 227.248074 138.117404 225.951254 144.006077 Z M 315.42175 203.543745 C 315.689188 203.543745 316.047453 203.634573 316.340121 203.634573 C 321.199412 203.634573 323.777914 199.602825 325.05455 194.652706 C 325.972921 190.797567 329.353736 177.582113 329.353736 164.366658 C 329.353736 148.577747 324.580227 132.718191 305.228845 132.718191 L 303.684771 132.718191 C 288.99084 132.718191 281.462219 141.250965 281.462219 153.729705 C 281.462219 154.355408 281.553047 155.092123 281.553047 155.743056 C 281.754887 158.856434 284.484769 160.602347 287.063271 160.602347 C 289.36929 160.602347 291.473469 159.239929 291.473469 156.101322 C 291.655125 141.876668 298.709422 137.400873 303.124666 137.219217 C 315.154313 137.577482 313.494181 154.648076 313.761619 164.815751 L 313.761619 165.199246 C 313.761619 165.734122 313.675837 166.026789 313.403353 166.026789 C 312.484982 166.026789 309.462433 162.444134 302.02464 162.444134 C 288.99084 162.444134 281.931497 174.181113 281.931497 183.54143 C 281.931497 185.287343 282.20398 186.836463 282.673258 188.314939 C 284.959092 195.571077 289.36929 201.979487 300.187898 201.979487 L 301.464534 201.979487 C 309.72987 201.530394 311.566612 195.752732 312.106533 195.752732 C 312.106533 195.752732 312.197361 195.752732 312.197361 195.838514 C 312.399201 196.378435 312.484982 196.938541 312.484982 197.498646 C 312.484982 198.951892 311.924877 200.228528 311.924877 201.348738 C 311.924877 202.539593 312.57581 203.276307 315.42175 203.543745 Z M 302.382905 196.756885 C 295.505217 196.580275 294.142799 189.591575 294.142799 183.990523 C 294.142799 180.877146 294.586846 178.122034 294.677674 177.496331 C 295.328607 173.90863 297.523614 167.863531 305.78895 167.752519 C 309.260593 167.752519 314.034102 170.709471 314.034102 171.804451 L 314.034102 176.37612 C 314.034102 178.414701 313.943274 181.528079 313.226743 188.224111 C 313.024904 190.237462 308.8115 196.756885 302.473733 196.756885 Z M 302.382905 196.756885 " stroke="#c0e9eb" stroke-width="6.881782" stroke-opacity="1" stroke-miterlimit="4"/><g fill="#000000" fill-opacity="1"><g transform="translate(10.776262, 172.201235)"><g><path d="M 14.417969 18.964844 C 15.199219 17.757812 17.613281 -17.046875 17.613281 -36.71875 C 17.613281 -41.195312 17.472656 -44.886719 17.1875 -47.234375 C 16.761719 -50.144531 12.996094 -52.488281 9.375 -52.488281 C 6.464844 -52.488281 3.695312 -50.996094 2.839844 -46.949219 C 2.273438 -42.757812 2.058594 -37.003906 2.058594 -30.613281 C 2.058594 -9.660156 4.476562 17.96875 5.539062 19.460938 C 6.820312 21.09375 8.308594 21.804688 9.730469 21.804688 C 11.578125 21.804688 13.351562 20.667969 14.417969 18.964844 Z M 14.417969 18.964844 "/></g></g></g><g fill="#000000" fill-opacity="1"><g transform="translate(31.160809, 172.201235)"><g><path d="M 0.78125 -47.585938 C 1.136719 -24.71875 1.492188 7.03125 3.125 20.3125 C 3.195312 23.792969 6.039062 25.425781 8.878906 25.425781 C 11.71875 25.425781 14.632812 23.722656 14.632812 20.457031 C 15.128906 11.007812 16.195312 -30.683594 16.832031 -43.964844 L 16.832031 -44.320312 C 16.832031 -50.996094 12.144531 -54.121094 7.8125 -54.121094 C 4.191406 -54.121094 0.78125 -51.847656 0.78125 -47.585938 Z M 0.78125 -47.585938 "/></g></g></g><g fill="#000000" fill-opacity="1"><g transform="translate(50.19585, 172.201235)"><g/></g></g><g fill="#000000" fill-opacity="1"><g transform="translate(67.952414, 172.201235)"><g><path d="M 56.820312 10.726562 C 57.671875 6.960938 59.164062 -1.207031 59.164062 -8.664062 C 59.164062 -15.484375 57.957031 -21.734375 53.765625 -23.9375 C 52.132812 -24.789062 50.5 -25.144531 48.796875 -25.144531 C 42.402344 -25.144531 35.9375 -19.957031 34.375 -14.914062 C 31.820312 -21.804688 28.054688 -23.792969 24.644531 -23.792969 C 19.886719 -23.792969 15.625 -19.957031 15.625 -19.957031 C 15.414062 -21.308594 16.550781 -26.636719 9.945312 -26.636719 C 9.515625 -26.636719 9.089844 -26.636719 8.59375 -26.5625 C 6.960938 -26.351562 5.609375 -25.710938 4.261719 -24.71875 C 2.484375 -24.574219 1.847656 -20.882812 1.847656 -15.839844 C 1.847656 -4.828125 4.828125 12.644531 4.828125 12.714844 C 5.46875 15.554688 7.316406 16.691406 9.304688 16.691406 C 11.789062 16.691406 14.347656 14.84375 14.488281 12.359375 C 14.914062 5.683594 14.632812 2.839844 15.339844 -3.835938 C 15.980469 -12.5 19.53125 -17.613281 22.871094 -17.613281 C 25.710938 -17.613281 28.480469 -13.777344 28.980469 -4.972656 L 28.980469 -4.6875 C 28.980469 -2.628906 28.550781 10.15625 28.550781 11.007812 C 28.550781 12.074219 29.546875 12.570312 30.753906 12.570312 C 32.8125 12.570312 35.585938 11.152344 35.65625 8.949219 C 35.65625 8.949219 35.585938 7.742188 35.585938 5.46875 C 35.585938 3.976562 35.585938 2.058594 35.726562 -0.285156 C 35.9375 -4.828125 36.367188 -9.589844 37.148438 -12.214844 C 37.714844 -14.207031 41.90625 -19.601562 44.960938 -19.601562 C 46.734375 -19.601562 48.085938 -17.898438 48.226562 -12.855469 C 48.367188 -11.363281 48.441406 -9.445312 48.441406 -7.246094 C 48.441406 -1.136719 47.941406 6.746094 47.445312 10.867188 C 47.445312 11.082031 47.375 11.363281 47.375 11.578125 C 47.375 13.636719 48.867188 14.417969 50.710938 14.417969 C 53.339844 14.417969 56.679688 12.644531 56.820312 10.726562 Z M 56.820312 10.726562 "/></g></g></g><g fill="#000000" fill-opacity="1"><g transform="translate(128.60885, 172.201235)"><g><path d="M 15.199219 -27.558594 C 5.539062 -27.558594 1.207031 -17.898438 1.207031 -7.953125 C 1.207031 2.699219 6.179688 13.777344 14.914062 13.777344 L 15.695312 13.777344 C 25.570312 13.070312 31.039062 2.203125 31.039062 -8.167969 C 31.039062 -18.039062 26.066406 -27.558594 15.199219 -27.558594 Z M 14.347656 8.453125 L 14.132812 8.453125 C 10.726562 8.453125 9.089844 0.710938 9.089844 -6.820312 C 9.089844 -13.992188 10.582031 -20.953125 13.636719 -21.09375 L 13.851562 -21.09375 C 18.113281 -21.09375 19.746094 -15.058594 19.746094 -8.453125 C 19.746094 -0.425781 17.332031 8.453125 14.347656 8.453125 Z M 14.347656 8.453125 "/></g></g></g><g fill="#000000" fill-opacity="1"><g transform="translate(162.275305, 172.201235)"><g><path d="M 2.558594 -23.226562 C 2.128906 -21.449219 1.917969 -15.269531 1.917969 -8.308594 C 1.917969 0.214844 2.273438 10.015625 2.839844 14.132812 C 3.265625 16.902344 6.039062 18.324219 8.808594 18.324219 C 11.433594 18.324219 13.992188 17.046875 14.417969 14.558594 C 15.910156 6.039062 16.976562 -3.695312 17.257812 -12.359375 C 17.257812 -12.996094 17.1875 -13.707031 17.1875 -14.417969 C 17.1875 -15.414062 17.332031 -16.40625 17.828125 -17.332031 C 19.320312 -19.886719 22.515625 -21.875 25.285156 -21.875 C 26.777344 -21.875 28.125 -21.238281 28.980469 -19.886719 C 31.039062 -16.832031 31.679688 -12.644531 31.679688 -8.097656 C 31.679688 -0.355469 29.832031 8.382812 29.832031 13.566406 C 29.832031 15.769531 30.113281 17.332031 31.039062 18.039062 C 31.75 18.539062 32.53125 18.820312 33.382812 18.820312 C 34.234375 18.820312 35.085938 18.539062 35.9375 18.113281 C 39.207031 16.902344 42.117188 6.605469 42.117188 -3.695312 C 42.117188 -12.996094 39.703125 -22.300781 32.957031 -24.503906 C 30.96875 -25.355469 28.980469 -25.640625 27.0625 -25.640625 C 22.300781 -25.640625 18.324219 -23.652344 17.046875 -23.296875 C 17.117188 -23.582031 17.117188 -23.863281 17.117188 -24.148438 C 17.117188 -27.203125 13.566406 -29.546875 9.945312 -29.546875 C 6.746094 -29.546875 3.550781 -27.769531 2.558594 -23.226562 Z M 2.558594 -23.226562 "/></g></g></g><g fill="#000000" fill-opacity="1"><g transform="translate(206.09852, 172.201235)"><g><path d="M 1.066406 0.921875 C 1.136719 10.9375 6.960938 18.039062 16.40625 18.039062 C 16.976562 18.039062 17.472656 18.039062 18.039062 17.96875 C 23.507812 17.402344 27.203125 11.789062 27.273438 11.789062 C 27.488281 14.277344 27.84375 18.253906 28.90625 19.886719 C 29.40625 20.738281 30.613281 21.238281 31.960938 21.238281 C 33.097656 21.238281 34.375 20.882812 35.511719 20.101562 C 38.566406 18.183594 41.335938 -17.1875 41.335938 -37.929688 C 41.335938 -44.535156 41.054688 -49.71875 40.414062 -51.707031 C 39.703125 -53.980469 37.359375 -55.1875 35.085938 -55.1875 C 32.886719 -55.1875 30.753906 -54.121094 29.972656 -51.847656 C 27.914062 -45.8125 26.492188 -28.625 26.492188 -16.40625 L 26.492188 -14.773438 C 24.148438 -16.761719 21.449219 -18.253906 16.832031 -18.324219 L 16.195312 -18.324219 C 6.320312 -18.324219 1.066406 -11.933594 1.066406 0.640625 Z M 26.5625 -8.949219 C 26.988281 -6.390625 27.273438 -1.347656 27.273438 2.484375 C 27.273438 3.339844 27.203125 4.046875 27.203125 4.757812 C 26.847656 8.664062 22.871094 12.359375 19.105469 12.359375 L 18.894531 12.359375 C 13.921875 12.214844 11.578125 6.179688 11.578125 0 C 11.578125 -6.25 13.992188 -12.5 18.394531 -12.996094 C 18.75 -13.070312 19.175781 -13.070312 19.53125 -13.070312 C 23.507812 -13.070312 26.28125 -10.796875 26.5625 -8.949219 Z M 26.5625 -8.949219 "/></g></g></g><g fill="#000000" fill-opacity="1"><g transform="translate(249.921735, 172.201235)"><g><path d="M 15.199219 -27.558594 C 5.539062 -27.558594 1.207031 -17.898438 1.207031 -7.953125 C 1.207031 2.699219 6.179688 13.777344 14.914062 13.777344 L 15.695312 13.777344 C 25.570312 13.070312 31.039062 2.203125 31.039062 -8.167969 C 31.039062 -18.039062 26.066406 -27.558594 15.199219 -27.558594 Z M 14.347656 8.453125 L 14.132812 8.453125 C 10.726562 8.453125 9.089844 0.710938 9.089844 -6.820312 C 9.089844 -13.992188 10.582031 -20.953125 13.636719 -21.09375 L 13.851562 -21.09375 C 18.113281 -21.09375 19.746094 -15.058594 19.746094 -8.453125 C 19.746094 -0.425781 17.332031 8.453125 14.347656 8.453125 Z M 14.347656 8.453125 "/></g></g></g><g fill="#000000" fill-opacity="1"><g transform="translate(283.588178, 172.201235)"><g/></g></g><g fill="#000000" fill-opacity="1"><g transform="translate(301.344741, 172.201235)"><g><path d="M 1.066406 0.921875 C 1.136719 10.9375 6.960938 18.039062 16.40625 18.039062 C 16.976562 18.039062 17.472656 18.039062 18.039062 17.96875 C 23.507812 17.402344 27.203125 11.789062 27.273438 11.789062 C 27.488281 14.277344 27.84375 18.253906 28.90625 19.886719 C 29.40625 20.738281 30.613281 21.238281 31.960938 21.238281 C 33.097656 21.238281 34.375 20.882812 35.511719 20.101562 C 38.566406 18.183594 41.335938 -17.1875 41.335938 -37.929688 C 41.335938 -44.535156 41.054688 -49.71875 40.414062 -51.707031 C 39.703125 -53.980469 37.359375 -55.1875 35.085938 -55.1875 C 32.886719 -55.1875 30.753906 -54.121094 29.972656 -51.847656 C 27.914062 -45.8125 26.492188 -28.625 26.492188 -16.40625 L 26.492188 -14.773438 C 24.148438 -16.761719 21.449219 -18.253906 16.832031 -18.324219 L 16.195312 -18.324219 C 6.320312 -18.324219 1.066406 -11.933594 1.066406 0.640625 Z M 26.5625 -8.949219 C 26.988281 -6.390625 27.273438 -1.347656 27.273438 2.484375 C 27.273438 3.339844 27.203125 4.046875 27.203125 4.757812 C 26.847656 8.664062 22.871094 12.359375 19.105469 12.359375 L 18.894531 12.359375 C 13.921875 12.214844 11.578125 6.179688 11.578125 0 C 11.578125 -6.25 13.992188 -12.5 18.394531 -12.996094 C 18.75 -13.070312 19.175781 -13.070312 19.53125 -13.070312 C 23.507812 -13.070312 26.28125 -10.796875 26.5625 -8.949219 Z M 26.5625 -8.949219 "/></g></g></g><g fill="#000000" fill-opacity="1"><g transform="translate(345.167968, 172.201235)"><g><path d="M 3.195312 -21.945312 C 3.195312 -21.804688 3.125 -21.59375 3.125 -21.378906 C 3.054688 -17.613281 2.984375 -13.707031 2.984375 -9.945312 C 2.984375 2.414062 3.480469 13.636719 4.617188 16.335938 C 5.683594 17.757812 7.457031 18.539062 9.089844 18.539062 C 10.726562 18.539062 12.214844 17.6875 12.570312 15.839844 C 14.488281 9.234375 15.839844 -6.890625 15.839844 -16.050781 C 15.839844 -18.253906 15.769531 -20.101562 15.625 -21.238281 C 15.269531 -24.007812 12.144531 -25.285156 9.019531 -25.285156 C 6.109375 -25.285156 3.265625 -24.078125 3.195312 -21.945312 Z M 9.515625 -42.261719 C 9.234375 -42.261719 9.019531 -42.332031 8.734375 -42.332031 C 5.46875 -42.332031 2.058594 -40.199219 1.421875 -36.933594 C 1.347656 -36.71875 1.347656 -36.4375 1.347656 -36.222656 C 1.347656 -33.523438 4.476562 -31.25 8.453125 -31.179688 L 9.089844 -31.179688 C 14.132812 -31.179688 17.046875 -32.8125 17.1875 -36.792969 L 17.1875 -36.863281 C 17.1875 -40.484375 12.925781 -41.90625 9.515625 -42.261719 Z M 9.515625 -42.261719 "/></g></g></g><g fill="#000000" fill-opacity="1"><g transform="translate(364.214598, 172.201235)"><g/></g></g><g fill="#000000" fill-opacity="1"><g transform="translate(111.062273, 253.484795)"><g><path d="M 38 -14.132812 C 38.355469 -14.132812 38.78125 -14.0625 39.136719 -14.0625 C 41.480469 -14.0625 43.894531 -14.84375 45.527344 -19.320312 C 46.664062 -22.300781 47.375 -26.351562 47.375 -30.542969 C 47.375 -41.621094 42.332031 -54.121094 25.710938 -54.121094 L 25.425781 -54.121094 C 17.96875 -54.121094 11.292969 -51.140625 6.464844 -42.542969 C 3.480469 -37.21875 1.492188 -26.917969 1.492188 -15.839844 C 1.492188 4.332031 7.953125 27.132812 26.207031 27.132812 L 27.34375 27.132812 C 38.78125 26.5625 45.597656 14.988281 46.023438 4.332031 L 46.023438 3.90625 C 46.023438 -1.421875 42.402344 -5.042969 37.074219 -5.042969 C 35.371094 -5.042969 33.59375 -4.6875 31.679688 -3.90625 C 30.113281 -3.265625 28.550781 -1.136719 28.550781 0.78125 C 28.550781 2.628906 29.972656 4.332031 33.949219 4.402344 C 34.804688 4.402344 35.230469 5.824219 35.230469 7.8125 C 35.230469 12.996094 32.316406 22.375 27.0625 22.871094 L 26.5625 22.871094 C 18.679688 22.871094 15.128906 6.605469 15.128906 -10.226562 C 15.128906 -28.199219 19.175781 -46.734375 26.636719 -46.734375 L 26.707031 -46.734375 C 32.316406 -46.664062 32.8125 -39.917969 32.8125 -32.601562 L 32.8125 -27.488281 C 32.8125 -20.597656 33.242188 -14.417969 38 -14.132812 Z M 38 -14.132812 "/></g></g></g><g fill="#000000" fill-opacity="1"><g transform="translate(160.212457, 253.484795)"><g><path d="M 3.195312 -21.945312 C 3.195312 -21.804688 3.125 -21.59375 3.125 -21.378906 C 3.054688 -17.613281 2.984375 -13.707031 2.984375 -9.945312 C 2.984375 2.414062 3.480469 13.636719 4.617188 16.335938 C 5.683594 17.757812 7.457031 18.539062 9.089844 18.539062 C 10.726562 18.539062 12.214844 17.6875 12.570312 15.839844 C 14.488281 9.234375 15.839844 -6.890625 15.839844 -16.050781 C 15.839844 -18.253906 15.769531 -20.101562 15.625 -21.238281 C 15.269531 -24.007812 12.144531 -25.285156 9.019531 -25.285156 C 6.109375 -25.285156 3.265625 -24.078125 3.195312 -21.945312 Z M 9.515625 -42.261719 C 9.234375 -42.261719 9.019531 -42.332031 8.734375 -42.332031 C 5.46875 -42.332031 2.058594 -40.199219 1.421875 -36.933594 C 1.347656 -36.71875 1.347656 -36.4375 1.347656 -36.222656 C 1.347656 -33.523438 4.476562 -31.25 8.453125 -31.179688 L 9.089844 -31.179688 C 14.132812 -31.179688 17.046875 -32.8125 17.1875 -36.792969 L 17.1875 -36.863281 C 17.1875 -40.484375 12.925781 -41.90625 9.515625 -42.261719 Z M 9.515625 -42.261719 "/></g></g></g><g fill="#000000" fill-opacity="1"><g transform="translate(179.247499, 253.484795)"><g><path d="M 2.558594 -23.226562 C 2.128906 -21.449219 1.917969 -15.269531 1.917969 -8.308594 C 1.917969 0.214844 2.273438 10.015625 2.839844 14.132812 C 3.265625 16.902344 6.039062 18.324219 8.808594 18.324219 C 11.433594 18.324219 13.992188 17.046875 14.417969 14.558594 C 15.910156 6.039062 16.976562 -3.695312 17.257812 -12.359375 C 17.257812 -12.996094 17.1875 -13.707031 17.1875 -14.417969 C 17.1875 -15.414062 17.332031 -16.40625 17.828125 -17.332031 C 19.320312 -19.886719 22.515625 -21.875 25.285156 -21.875 C 26.777344 -21.875 28.125 -21.238281 28.980469 -19.886719 C 31.039062 -16.832031 31.679688 -12.644531 31.679688 -8.097656 C 31.679688 -0.355469 29.832031 8.382812 29.832031 13.566406 C 29.832031 15.769531 30.113281 17.332031 31.039062 18.039062 C 31.75 18.539062 32.53125 18.820312 33.382812 18.820312 C 34.234375 18.820312 35.085938 18.539062 35.9375 18.113281 C 39.207031 16.902344 42.117188 6.605469 42.117188 -3.695312 C 42.117188 -12.996094 39.703125 -22.300781 32.957031 -24.503906 C 30.96875 -25.355469 28.980469 -25.640625 27.0625 -25.640625 C 22.300781 -25.640625 18.324219 -23.652344 17.046875 -23.296875 C 17.117188 -23.582031 17.117188 -23.863281 17.117188 -24.148438 C 17.117188 -27.203125 13.566406 -29.546875 9.945312 -29.546875 C 6.746094 -29.546875 3.550781 -27.769531 2.558594 -23.226562 Z M 2.558594 -23.226562 "/></g></g></g><g fill="#000000" fill-opacity="1"><g transform="translate(223.070713, 253.484795)"><g><path d="M 27.984375 22.871094 C 28.199219 22.871094 28.480469 22.941406 28.695312 22.941406 C 32.460938 22.941406 34.449219 19.816406 35.441406 15.980469 C 36.152344 12.996094 38.78125 2.769531 38.78125 -7.457031 C 38.78125 -19.675781 35.085938 -31.960938 20.101562 -31.960938 L 18.894531 -31.960938 C 7.527344 -31.960938 1.703125 -25.355469 1.703125 -15.695312 C 1.703125 -15.199219 1.777344 -14.632812 1.777344 -14.132812 C 1.917969 -11.71875 4.046875 -10.371094 6.039062 -10.371094 C 7.8125 -10.371094 9.445312 -11.433594 9.445312 -13.851562 C 9.589844 -24.859375 15.058594 -28.339844 18.46875 -28.480469 C 27.769531 -28.199219 26.492188 -14.988281 26.707031 -7.101562 L 26.707031 -6.820312 C 26.707031 -6.390625 26.636719 -6.179688 26.421875 -6.179688 C 25.710938 -6.179688 23.367188 -8.949219 17.613281 -8.949219 C 7.527344 -8.949219 2.058594 0.140625 2.058594 7.386719 C 2.058594 8.734375 2.273438 9.945312 2.628906 11.082031 C 4.402344 16.691406 7.8125 21.664062 16.195312 21.664062 L 17.1875 21.664062 C 23.582031 21.308594 25 16.832031 25.425781 16.832031 C 25.425781 16.832031 25.5 16.832031 25.5 16.902344 C 25.640625 17.332031 25.710938 17.757812 25.710938 18.183594 C 25.710938 19.320312 25.285156 20.3125 25.285156 21.164062 C 25.285156 22.089844 25.78125 22.65625 27.984375 22.871094 Z M 17.898438 17.613281 C 12.570312 17.472656 11.507812 12.074219 11.507812 7.742188 C 11.507812 5.328125 11.863281 3.195312 11.933594 2.699219 C 12.429688 -0.0703125 14.132812 -4.757812 20.527344 -4.828125 C 23.226562 -4.828125 26.917969 -2.558594 26.917969 -1.703125 L 26.917969 1.847656 C 26.917969 3.410156 26.847656 5.824219 26.28125 11.007812 C 26.136719 12.570312 22.871094 17.613281 17.96875 17.613281 Z M 17.898438 17.613281 "/></g></g></g></svg>